<svg width="423" height="442" viewBox="0 0 423 442" fill="none" xmlns="http://www.w3.org/2000/svg">
<path d="M127.44 166.188C126.795 166.814 126.155 167.453 125.506 168.088C126.051 166.89 126.736 165.76 127.549 164.723C131.091 159.991 134.763 155.236 139.706 151.738C141.853 150.409 143.92 148.959 145.899 147.395C150.447 143.284 154.828 138.988 159.221 134.717C159.944 133.917 160.583 133.047 161.13 132.12C161.176 131.996 161.141 131.79 161.137 131.445L159.744 131.225L159.627 130.555C160.741 129.963 161.851 129.49 162.926 128.894L163.38 128.64C163.516 128.165 163.715 127.709 163.971 127.286C168.765 119.437 177.03 114.953 185.17 111.211C193.311 107.469 201.615 103.727 209.356 99.1378C212.724 97.06 215.923 94.7284 218.926 92.1635C215.36 93.0873 211.826 94.1374 208.323 95.3137C207.698 95.4889 207.064 95.6285 206.423 95.7318L194.428 100.785L192.593 101.904C184.871 106.47 176.977 110.729 169.481 115.674C154.742 125.496 141.957 137.507 130.564 150.971C127.024 155.128 122.902 158.895 119.911 163.419C109.399 179.286 100.509 195.964 96.8173 214.928C96.1303 218.53 95.2054 222.083 94.3917 225.668C96.8679 219.868 98.9289 213.973 101.101 208.11C104.551 198.928 108.001 189.745 112.905 181.22C113.201 180.704 113.557 180.222 113.88 179.717C110.625 188.599 106.454 197.136 103.9 206.282C105.874 204.654 107.312 202.48 108.031 200.033C110.431 192.466 113.799 185.243 118.055 178.536C118.333 178.095 118.647 177.668 118.944 177.233L119.806 177.668L115.857 186.542L116.244 186.738C120.093 179.986 123.937 173.228 127.776 166.466L127.44 166.188Z" fill="white"/>
<path d="M354.332 114.884L352.402 114.291C351.808 113.888 351.106 113.673 350.389 113.676L348.918 113.224C313.986 96.8261 350.582 109.504 351.512 107.439C313.36 89.952 274.117 86.9907 233.862 95.9167L233.858 96.5011L240.771 95.6427L240.796 95.9045C237.195 96.785 233.584 97.6409 229.991 98.5546C219.534 101.204 210.108 106.323 200.49 110.915C190.29 115.773 180.593 121.557 172.092 129.044C161.526 138.342 150.813 147.484 141.494 158.13C134.088 166.611 127.645 175.873 122.28 185.753C121.945 186.292 121.581 186.814 121.191 187.315L115.945 198.985C115.753 199.661 115.569 200.34 115.368 201.012C112.87 209.461 110 217.81 107.953 226.368C103.904 243.258 102.748 260.467 103.515 277.823C103.752 283.196 103.305 288.667 104.176 293.936C107.239 312.437 111.984 330.448 122.069 346.656C123.989 349.732 125.701 352.922 127.516 356.059C125.415 350.217 122.952 344.552 120.58 338.861C116.864 329.927 113.246 320.949 111.057 311.497C110.934 310.925 110.856 310.34 110.757 309.757C114.377 318.403 117.085 327.292 121.376 335.624C121.716 333.158 121.319 330.641 120.232 328.383C116.87 321.285 114.447 313.796 113.023 306.101C112.927 305.591 112.879 305.037 112.789 304.568L113.723 304.293L116.816 313.357L117.235 313.252C115.529 305.915 113.796 298.567 112.037 291.21L112.082 291.227L110.505 274.305C109.451 280.74 110.221 287.092 111.35 293.448C110.968 292.262 110.719 291.041 110.607 289.804C109.971 283.967 109.45 278.123 110.663 272.303C111.333 269.915 111.864 267.49 112.254 265.039C112.776 259.041 113.052 253.011 113.36 246.983C113.341 245.919 113.221 244.859 113.001 243.816C112.982 243.678 112.788 243.565 112.554 243.315L111.897 243.755C112.796 242.072 112.613 240.184 112.789 238.351C112.656 238.705 112.523 239.059 112.39 239.414C114.238 233.731 116.046 228.045 117.912 222.37C125.386 199.855 137.005 178.936 152.187 160.662C165.977 143.875 183.11 131.284 202.348 121.384C214.097 115.35 226.228 110.207 239.122 107.098C250.922 104.346 263.02 102.966 275.169 102.988C279.545 102.965 283.916 103.142 288.782 103.232C288.513 103.449 288.224 103.641 287.92 103.807L287.431 103.937C299.465 103.254 311.697 107.092 323.444 109.029C332.082 110.456 340.547 111.605 348.943 114.032L350.247 114.38L351.169 114.656L351.987 114.852L354.222 115.45L354.034 115.379L354.24 115.456L354.332 114.884ZM111.426 292.89C111.409 293.127 111.404 293.357 111.399 293.588C111.381 293.559 111.369 293.527 111.363 293.493C111.388 293.291 111.388 293.129 111.426 292.89Z" fill="white"/>
</svg>
