<svg width="432" height="205" viewBox="0 0 432 205" fill="none" xmlns="http://www.w3.org/2000/svg">
<path d="M23.9635 150.317C23.9191 150.19 23.8747 150.064 23.8359 149.933C23.8359 150.048 23.8969 150.158 23.9246 150.273C23.9345 150.29 23.9477 150.305 23.9635 150.317Z" fill="white"/>
<path d="M129.121 96.3805C129.129 96.2434 129.129 96.106 129.121 95.969C129.121 95.2064 129.132 95.9251 129.121 96.3805Z" fill="white"/>
<path d="M205.726 81.1179C205.726 81.0631 205.726 81.0027 205.726 80.9424L205.354 80.8271L205.232 81.0027L205.726 80.9478V81.1179Z" fill="white"/>
<path d="M144.708 7.2399C144.154 6.98205 143.599 6.73516 143.045 6.48828C144.416 7.14456 145.749 7.87724 147.037 8.68279C146.316 8.11943 145.535 7.63561 144.708 7.2399Z" fill="white"/>
<path d="M204.055 93.2873C204.305 93.0185 204.554 92.7387 204.821 92.4973C204.438 89.3646 203.839 86.2813 203.362 85.7656C203.358 88.2887 203.59 90.8067 204.055 93.2873Z" fill="white"/>
<path d="M162.301 17.5768C162.002 17.3354 161.708 17.0885 161.425 16.8252L161.358 16.9294L162.301 17.5768Z" fill="white"/>
<path d="M162.358 17.0439L164.737 18.5362C163.997 17.9612 163.2 17.4612 162.358 17.0439Z" fill="white"/>
<path d="M164.52 19.0957L166.294 20.3137C166.241 20.1267 166.153 19.9516 166.033 19.7979V19.8418C165.514 19.6226 165.009 19.3734 164.52 19.0957Z" fill="white"/>
<path d="M53.2057 184.479L53.0283 184.814L54.5031 185.747C54.0161 185.383 53.5798 184.957 53.2057 184.479Z" fill="white"/>
<path d="M54.7197 185.183L56.9375 186.708C56.242 186.14 55.5002 185.63 54.7197 185.183Z" fill="white"/>
<path d="M56.8828 187.24L57.6646 187.734L57.8309 187.471L57.7311 187.624C57.4412 187.512 57.158 187.384 56.8828 187.24Z" fill="white"/>
<path d="M203.163 71.3532H203.091L201.117 71.2984C201.932 74.1019 202.825 76.8834 203.706 79.665C203.931 80.2389 204.212 80.7901 204.544 81.3108C204.582 81.3822 204.71 81.3986 204.887 81.4864L205.153 81.1188C205.153 81.0804 205.153 81.0475 205.153 81.0146H205.22L205.342 80.839L205.713 80.9542C205.713 81.0146 205.713 81.0749 205.713 81.1298L205.747 83.5767C205.863 86.1826 205.991 88.7886 206.107 91.3891C207.491 90.333 209.02 89.4777 210.648 88.849C209.706 82.0233 208.071 75.3089 205.769 68.8076V69.0161C205.706 69.6564 205.404 70.2504 204.922 70.6824C204.44 71.1144 203.813 71.3536 203.163 71.3532Z" fill="white"/>
<path d="M211.57 113.658L212.035 106.257C212.002 105.851 211.963 105.445 211.936 105.034C211.764 102.68 211.642 100.321 211.498 97.9619C209.879 100.54 209.513 103.92 209.513 106.394C209.513 110.377 210.222 113.11 211.265 114.98L211.298 114.733C211.37 114.371 211.461 114.012 211.57 113.658Z" fill="white"/>
<path d="M198.064 151.579C201.163 145.742 204.201 139.871 206.519 133.65C207.7 130.486 208.698 127.259 209.507 123.983C207.466 123.072 205.63 121.767 204.107 120.143C203.416 123.562 202.562 126.955 201.546 130.32L200.038 134.999C199.195 137.428 198.241 139.794 197.177 142.099C197.775 143.179 198.081 144.394 198.064 145.626V151.579Z" fill="white"/>
<path d="M185.402 160.917V169.015C185.402 169.404 185.402 169.728 185.402 170.008C186.293 169.042 187.164 168.06 188.014 167.062V157.488C187.171 158.646 186.306 159.793 185.402 160.917Z" fill="white"/>
<path d="M56.9363 186.707L54.7185 185.182C54.1308 184.787 53.5542 184.387 52.9443 183.97C52.997 184.155 53.0855 184.328 53.2049 184.48C53.579 184.957 54.0152 185.383 54.5023 185.747C55.244 186.32 56.0407 186.82 56.8808 187.24C57.1509 187.377 57.4286 187.5 57.7125 187.607L57.8123 187.454L57.8788 187.349L56.9363 186.707Z" fill="white"/>
<path d="M175.682 171.637C172.114 175.179 168.234 178.402 164.089 181.265C158.266 185.167 152.003 188.383 145.427 190.85C143.065 191.755 140.664 192.556 138.014 193.5C138.258 193.154 138.291 193.061 138.363 193.011C138.663 192.808 138.945 192.594 139.234 192.38C139.01 192.522 138.775 192.643 138.53 192.742C131.4 195.606 123.898 196.638 116.28 197.197C111.728 197.532 107.199 198.646 102.658 199.392C102.891 199.392 103.118 199.447 103.345 199.485C103.39 199.485 103.412 199.589 103.545 199.803L101.499 200.067L100.168 200.198H100.285H100.157L100.19 200.511L101.355 200.44C101.758 200.537 102.182 200.51 102.569 200.363L103.456 200.308C125.683 202.08 103.312 202.662 103.229 203.978C127.419 205.685 149.247 199.293 169.206 186.23L169.09 185.912L165.525 187.794L165.459 187.657C167.227 186.439 169.007 185.237 170.764 184.008C174.059 181.606 177.104 178.884 179.852 175.883C178.876 175.537 177.992 174.974 177.27 174.238C176.547 173.502 176.004 172.612 175.682 171.637Z" fill="white"/>
<path d="M93.9742 201.092C90.7585 200.319 87.5427 199.534 84.3714 198.596C79.4757 197.142 74.6909 195.304 69.8563 193.658C69.823 193.757 69.7953 193.85 69.7676 193.949C70.5715 194.531 71.3921 195.046 72.2182 195.595C72.9355 196.152 73.7105 196.632 74.5302 197.027C75.0846 197.29 75.639 197.537 76.1935 197.784C78.7715 199.013 81.4639 199.992 84.2328 200.708C86.5119 201.36 88.8436 201.818 91.202 202.074L91.6511 202.113C94.1355 202.412 96.6337 202.586 99.136 202.634V202.59L99.1692 202.42V202.376L99.2025 202.211C97.4838 201.882 95.7262 201.504 93.9742 201.092Z" fill="white"/>
<path d="M202.736 60.9124C201.516 58.0431 200.646 54.9818 199.104 52.3045C193.688 42.879 187.461 34.0736 178.712 27.3309C177.049 26.0526 175.474 24.6701 173.855 23.3369C176.179 26.0801 178.662 28.6476 181.102 31.2591C184.928 35.3519 188.709 39.4885 191.814 44.1738C191.997 44.4536 192.157 44.7608 192.329 45.0516C188.615 41.1015 185.343 36.8222 181.329 33.1793C181.648 34.5876 182.379 35.8718 183.431 36.8716C186.69 40.0406 189.521 43.6145 191.852 47.504C192.008 47.7618 192.146 48.0252 192.29 48.2885L191.841 48.6287L188.326 44.3384L188.121 44.4865L195.412 55.3877H195.384L199.481 63.8421H203.39C203.577 63.8437 203.763 63.8658 203.945 63.9079C203.568 62.9149 203.163 61.9109 202.736 60.9124Z" fill="white"/>
<path d="M205.769 84.2341C205.769 84.0147 205.769 83.7898 205.769 83.5703L205.736 81.1234V80.9424L205.242 80.9972H205.176C205.176 81.0302 205.176 81.0631 205.176 81.1015C205.01 82.1878 205.47 83.1972 205.769 84.2341Z" fill="white"/>
<path d="M164.518 19.096C165 19.373 165.498 19.6222 166.01 19.8422V19.7983L166.187 19.4636L164.712 18.5364L162.334 17.0442L161.552 16.5449L161.386 16.8083C161.669 17.0716 161.94 17.3185 162.262 17.5599C162.968 18.1349 163.723 18.6489 164.518 19.096Z" fill="white"/>
<path d="M7.82975 76.8992C7.60798 77.371 7.39175 77.8483 7.16998 78.3256C7.22091 77.5638 7.36234 76.8107 7.59134 76.0817C8.54497 72.7899 9.56513 69.4598 11.5278 66.552C12.419 65.3923 13.2427 64.1834 13.9951 62.9311C15.6196 59.771 17.1165 56.5451 18.6246 53.3301C18.8528 52.7484 19.0218 52.1455 19.1291 51.5306C19.1291 51.4538 19.0681 51.3496 18.9961 51.163L18.1977 51.3276L17.9981 50.9875C18.4804 50.4388 18.985 49.956 19.4452 49.4129L19.6392 49.1825C19.6162 48.8965 19.6311 48.6088 19.6836 48.3266C20.6815 43.0872 24.241 38.967 27.8836 35.2748C31.5263 31.5825 35.2576 27.8573 38.5121 23.7865C39.9115 21.9715 41.1682 20.053 42.2712 18.0479C40.5303 19.2768 38.8319 20.5679 37.176 21.9212C36.8739 22.1436 36.5592 22.3488 36.2334 22.5356L30.7722 27.7256L30.0071 28.7077C26.7581 32.762 23.3539 36.6847 20.3045 40.8982C14.3277 49.2373 9.85344 58.3665 6.42703 68.0004C5.35698 70.9795 3.89327 73.8652 3.19468 76.9321C0.732992 87.6907 -0.686358 98.559 1.171 109.608C1.53138 111.704 1.75315 113.822 2.04146 115.934C2.20224 112.28 2.11908 108.659 2.10245 105.033C2.10245 99.3435 2.10245 93.6542 3.02281 88.0253C3.07825 87.6852 3.1725 87.3505 3.24458 87.0104C3.28893 92.4966 2.76777 97.9829 3.24458 103.469C3.98206 102.183 4.31777 100.709 4.2093 99.2338C3.96979 94.6362 4.32379 90.0271 5.26272 85.5181C5.32371 85.2218 5.40688 84.9256 5.47895 84.6293L6.03339 84.6897L5.70072 90.3131L5.95022 90.3405C6.6599 85.8893 7.36588 81.4363 8.06816 76.9814L7.82975 76.8992Z" fill="white"/>
<path d="M15.8528 118.514C15.9526 113.856 14.7439 109.423 14.1562 104.913C13.5741 106.833 14.9435 117.521 15.8528 118.514Z" fill="white"/>
<path d="M147.02 8.67817C145.733 7.87261 144.4 7.13994 143.029 6.48366C140.45 5.25496 137.758 4.27391 134.989 3.55399C132.71 2.90289 130.378 2.44767 128.02 2.19339L127.571 2.1495C125.115 1.85324 122.614 1.68865 120.086 1.63379V1.67768L120.053 1.84227V1.89164L120.02 2.05623C121.683 2.37443 123.346 2.73104 125.009 3.09862C127.637 3.74052 130.265 4.38241 132.866 5.10112H133.088C134.196 5.40835 135.305 5.72106 136.375 6.05024L136.492 6.13802C140.839 7.49313 145.124 9.08416 149.438 10.56C149.471 10.4667 149.499 10.3679 149.527 10.2747C148.667 9.72605 147.847 9.19388 147.02 8.67817Z" fill="white"/>
<path d="M119.05 3.74006L117.886 3.81138C117.482 3.71384 117.059 3.74064 116.671 3.88819L115.784 3.94305C93.557 2.1655 115.928 1.58395 116.012 0.27273C91.8216 -1.43899 69.9935 4.95801 50.0338 18.0154L50.1503 18.3336L53.7153 16.4573L53.7818 16.5944C52.0132 17.8069 50.2334 19.0084 48.4759 20.2373C43.3585 23.8089 39.3 28.5106 35.0308 32.9655C30.5011 37.6837 26.4316 42.8024 23.3545 48.6014C19.5289 55.8048 15.5924 62.9534 12.7149 70.6342C10.4325 76.7494 8.82998 83.0924 7.93564 89.5509C7.86406 89.912 7.77337 90.2691 7.66397 90.6208L7.19824 98.0272C7.23151 98.4332 7.27032 98.8392 7.29804 99.2452C7.66397 104.342 7.80812 109.461 8.44018 114.524C9.68211 124.52 12.5541 134.099 16.4961 143.366C17.7159 146.235 18.5863 149.296 20.1277 151.979C25.5445 161.399 31.7708 170.21 40.5197 176.953C42.1831 178.231 43.7576 179.614 45.3766 180.947C43.0535 178.204 40.5696 175.631 38.1301 173.025C34.3045 168.932 30.5233 164.795 27.4185 160.11C27.2355 159.825 27.0747 159.523 26.9028 159.227C30.6176 163.182 33.8887 167.456 37.9028 171.104C37.5861 169.696 36.8594 168.411 35.8126 167.407C32.5521 164.239 29.7195 160.667 27.3852 156.78C27.23 156.522 27.0914 156.231 26.9472 155.995L27.3963 155.655L30.9114 159.945L31.1165 159.803C28.7029 156.167 26.2726 152.532 23.8257 148.896H23.8535L19.5621 140.03C20.2995 143.739 22.0072 147.031 23.9089 150.251C23.4618 149.685 23.0788 149.073 22.7668 148.424C21.2365 145.385 19.7673 142.318 19.2406 138.911C19.1176 137.478 18.9121 136.053 18.6251 134.643C17.6881 131.28 16.6125 127.949 15.5536 124.614C15.3277 124.04 15.0474 123.489 14.7164 122.968C14.6776 122.897 14.55 122.875 14.3726 122.787L14.1065 123.16C14.2506 122.063 13.7683 121.075 13.4911 120.044C13.4911 120.263 13.4911 120.483 13.4911 120.702C13.3358 117.24 13.1584 113.784 13.0143 110.322C12.4816 96.5738 14.5153 82.8462 19.0132 69.8278C23.0606 57.9006 29.7693 47.5699 38.1634 38.2707C43.2919 32.5979 48.8085 27.3311 55.1513 23.0134C60.9745 19.1118 67.2375 15.8952 73.8135 13.4288C76.1754 12.5236 78.5761 11.7281 81.2263 10.7844C81.1247 10.9571 81.0078 11.1205 80.877 11.2727L80.6386 11.4428C87.0091 8.61736 94.4052 8.20589 101.153 6.86175C106.115 5.87422 110.927 4.77148 115.962 4.37647L116.738 4.29966L117.292 4.26126L117.775 4.20091L119.105 4.06923H118.989H119.116L119.05 3.74006ZM23.8368 149.933C23.8756 150.065 23.92 150.191 23.9643 150.317C23.9486 150.305 23.9354 150.29 23.9255 150.273C23.8978 150.158 23.8645 150.07 23.8368 149.933Z" fill="white"/>
<path d="M275.738 173.958V172.718H275.277C274.767 172.718 274.274 171.105 273.913 169.925L264.488 141.101H260.712L249.995 173.958H252.795L256.726 161.339H266.345L269.306 170.463C270.415 173.854 273.132 173.974 274.85 173.974H275.715L275.738 173.958ZM257.303 159.491L261.433 146.23L265.73 159.491H257.303Z" fill="white"/>
<path d="M151.258 145.726L150.859 145.303C149.328 143.657 146.479 140.646 140.008 140.646C130.383 140.646 123.93 147.229 123.93 157.071C123.93 167.495 130.028 173.958 139.886 173.958C144.666 173.958 149.467 171.089 152.084 168.247L152.344 167.962L151.491 166.864L151.119 167.188C148.68 169.322 144.538 170.815 141.051 170.815C134.148 170.815 128.942 164.911 128.942 157.099C128.942 147.816 133.377 142.286 140.868 142.286C142.59 142.285 144.292 142.651 145.859 143.358C147.426 144.065 148.821 145.097 149.949 146.384L150.271 146.73L151.258 145.726Z" fill="white"/>
<path d="M348.514 170.944V155.248H358.249V153.421H348.514V144.095C348.518 143.679 348.411 143.27 348.203 142.91H360.955V141.077H342.564V142.317H343.025C343.025 142.317 343.707 142.361 343.707 145.916V169.096C343.707 172.656 343.052 172.695 343.025 172.695H342.564V173.934H363.184V172.124H348.214C348.417 171.764 348.521 171.357 348.514 170.944Z" fill="white"/>
<path d="M303.397 169.075V145.621C303.397 142.253 300.564 141.057 297.908 141.057H297.448V142.297H297.908C297.908 142.297 298.59 142.335 298.59 145.939V157.296H285.483V145.621C285.483 142.253 282.645 141.057 279.994 141.057H279.534V142.297H279.994C279.994 142.297 280.676 142.335 280.676 145.939V169.393C280.676 172.762 283.509 173.958 286.165 173.958H286.625V172.718H286.165C286.165 172.718 285.483 172.68 285.483 169.075V159.128H298.618V169.393C298.618 172.762 301.457 173.958 304.107 173.958H304.567V172.718H304.107C304.107 172.718 303.397 172.68 303.397 169.075Z" fill="white"/>
<path d="M82.8005 118.875H79.3575L79.9951 181.446C79.3298 182.658 78.6977 183.799 77.6942 183.882H77.5889V184.897H79.8787C81.6861 184.897 86.0717 184.666 88.5667 179.959L116.288 127.395L115.263 184.771V184.908H118.711L118.063 124.01C118.268 123.62 118.462 123.22 118.65 122.83C119.415 121.25 120.075 119.884 121.162 119.884H121.278V118.858H118.939C117.109 118.858 112.773 119.133 110.295 123.796L81.7638 177.863L82.8005 118.985V118.875Z" fill="white"/>
<path d="M329.701 143.266L313.999 168.673L314.553 140.644H311.781L312.153 171.746C311.798 172.294 311.526 172.64 311.194 172.667L310.767 172.7V173.957H312.474C313.583 173.957 316.267 173.836 317.819 171.334L333.06 146.646L332.506 173.935H335.278L334.901 143.661C335.001 143.497 335.095 143.327 335.184 143.162C335.55 142.52 335.894 141.911 336.293 141.911H336.753V140.622H335.206C334.264 140.644 331.325 140.617 329.701 143.266Z" fill="white"/>
<path d="M214.845 145.939V169.393C214.845 172.762 217.684 173.958 220.334 173.958H220.794V172.718H220.334C220.334 172.718 219.652 172.68 219.652 169.075V145.621C219.652 142.253 216.819 141.057 214.169 141.057H213.703V142.297H214.169C214.197 142.297 214.845 142.335 214.845 145.939Z" fill="white"/>
<path d="M211.148 164.335C211.148 158.904 206.43 155.661 198.529 155.661C197.842 155.661 196.5 155.716 195.452 155.782V145.621C195.452 142.253 192.619 141.057 189.969 141.057H189.503V142.297H189.946C189.946 142.297 190.623 142.335 190.623 145.939V169.393C190.623 172.57 193.146 173.815 195.657 173.947H198.457C205.936 173.958 211.148 169.997 211.148 164.335ZM198.817 172.356C197.779 172.323 196.746 172.2 195.729 171.988C195.522 171.031 195.434 170.053 195.469 169.075V157.587C196.616 157.356 197.785 157.246 198.956 157.258C203.58 157.258 206.125 159.737 206.125 164.236C206.108 169.092 203.17 172.356 198.817 172.356Z" fill="white"/>
<path d="M240.471 172.718H240.011C239.983 172.718 239.329 172.68 239.329 169.075V145.621C239.363 144.657 239.066 143.709 238.486 142.933H249.336V141.101H224.509V142.938H234.239C234.462 143.925 234.555 144.935 234.516 145.945V169.399C234.516 172.767 237.355 173.963 240.011 173.963H240.471V172.718Z" fill="white"/>
<path d="M183.494 173.958H183.96V172.718H183.494C183.467 172.718 182.801 172.674 182.801 169.014V145.264C182.801 141.929 180.029 140.7 177.418 140.65H155.279L155.49 142.768L158.528 142.686C158.748 143.624 158.841 144.587 158.805 145.55V169.338C158.805 172.751 161.677 173.963 164.35 173.963H164.81V172.723H164.35C164.322 172.723 163.651 172.679 163.651 169.014V145.22C163.705 144.303 163.454 143.394 162.936 142.631L177.595 142.373C177.873 143.421 177.985 144.506 177.928 145.588V169.338C177.945 172.745 180.811 173.958 183.494 173.958Z" fill="white"/>
<path d="M271.331 123.275L279.964 95.5476L287.831 119.77C288.94 123.155 291.662 123.275 293.403 123.275H294.263V122.035H293.802C293.298 122.035 292.799 120.422 292.438 119.243L283.013 90.418H279.237L268.515 123.275H271.331Z" fill="white"/>
<path d="M254.817 123.274C259.601 123.274 264.403 120.405 267.014 117.563L267.28 117.278L266.427 116.181L266.055 116.504C263.616 118.638 259.474 120.131 255.981 120.131C249.084 120.131 243.878 114.227 243.878 106.415C243.878 97.1322 248.313 91.602 255.804 91.602C257.525 91.6016 259.226 91.9673 260.792 92.6744C262.358 93.3815 263.752 94.4134 264.88 95.7002L265.207 96.0459L266.183 95.0803L265.783 94.6524C264.248 93.0065 261.398 90 254.933 90C245.308 90 238.855 96.5835 238.855 106.431C238.832 116.806 244.948 123.274 254.817 123.274Z" fill="white"/>
<path d="M319.066 121.442H304.096C304.305 121.084 304.414 120.677 304.412 120.263V104.572H314.137V102.74H304.395V93.413C304.397 92.9974 304.288 92.5888 304.079 92.2279H316.831V90.3955H298.446V91.6354H298.906C298.934 91.6354 299.588 91.6793 299.588 95.2399V118.414C299.588 121.975 298.934 122.013 298.906 122.013H298.446V123.253H319.066V121.442Z" fill="white"/>
<path d="M392.253 120.263V104.572H401.989V102.74H392.253V93.413C392.256 92.9979 392.149 92.5892 391.942 92.2279H404.694V90.3955H386.304V91.6354H386.769C386.769 91.6354 387.451 91.6793 387.451 95.2399V118.414C387.451 121.975 386.797 122.013 386.769 122.013H386.309V123.253H406.934V121.42H391.964C392.16 121.066 392.259 120.667 392.253 120.263Z" fill="white"/>
<path d="M416.67 121.442C416.879 121.084 416.988 120.677 416.986 120.263V104.572H426.716V102.74H416.986V93.413C416.987 92.9974 416.878 92.5888 416.67 92.2279H429.422V90.3955H411.037V91.6354H411.497C411.497 91.6354 412.179 91.6793 412.179 95.2399V118.414C412.179 121.975 411.525 122.013 411.497 122.013H411.037V123.253H431.679V121.42L416.67 121.442Z" fill="white"/>
<path d="M380.293 118.392V94.9386C380.293 91.5755 377.46 90.374 374.804 90.374H374.344V91.6139H374.804C374.832 91.6139 375.486 91.6523 375.486 95.2623V106.619H362.374V94.9386C362.374 91.5755 359.541 90.374 356.885 90.374H356.425V91.6139H356.885C356.885 91.6139 357.567 91.6523 357.567 95.2623V118.711C357.567 122.079 360.4 123.275 363.056 123.275H363.516V122.035H363.056C363.056 122.035 362.374 121.997 362.374 118.392V108.451H375.481V118.711C375.481 122.079 378.319 123.275 380.97 123.275H381.43V122.035H380.97C380.97 122.035 380.293 121.997 380.293 118.392Z" fill="white"/>
<path d="M201.872 106.393C201.872 116.965 208.281 123.275 219.015 123.275C229.877 123.275 236.108 117.124 236.108 106.393C236.108 98.4272 230.098 89.9619 218.965 89.9619C208.581 89.9619 201.872 96.4083 201.872 106.393ZM218.827 91.5804C226.866 91.5804 231.074 99.0417 231.074 106.393C231.074 116.532 227.016 121.673 219.015 121.673C209.008 121.673 206.906 113.361 206.906 106.393C206.906 97.1105 211.364 91.5639 218.827 91.5639V91.5804Z" fill="white"/>
<path d="M321.94 128.361C321.94 131.73 324.773 132.926 327.429 132.926H327.889V131.686H327.446C327.418 131.686 326.764 131.648 326.764 128.043V123.276H348.581V128.361C348.581 131.73 351.419 132.926 354.075 132.926H354.535V131.686H354.059C354.059 131.686 353.377 131.648 353.377 128.043V123.276V122.036H352.916C352.794 122.036 352.689 121.866 352.623 121.718L352.501 121.443H350.904C350.582 120.733 350.315 119.999 350.105 119.249L340.68 90.4238H336.904L326.78 121.449H322.794L322.672 121.723C322.605 121.871 322.5 122.041 322.384 122.041H321.918V123.281L321.94 128.361ZM337.631 95.548L345.498 119.77C345.689 120.371 345.979 120.936 346.357 121.443H329.569L337.631 95.548Z" fill="white"/>
<path d="M199.371 131.702H199.255C198.002 131.702 197.364 129.316 197.364 124.609V96.08V74.272C197.364 71.6002 197.586 69.8007 198.052 68.6102L203.18 68.7474L203.408 66.4541H151.08L151.307 68.7474L156.441 68.6102C156.907 69.8007 157.123 71.6002 157.123 74.272V125.157C157.123 125.311 157.123 125.443 157.151 125.585C157.15 126.528 157.36 127.459 157.764 128.312C158.169 129.166 158.758 129.921 159.491 130.523C159.608 130.617 159.73 130.705 159.857 130.786C162.014 132.289 164.847 132.481 166.078 132.481H166.194V131.691H166.105C165.107 131.691 164.503 130.172 164.298 127.182C164.242 126.414 164.215 125.536 164.215 124.587V73.707C164.215 71.2546 163.549 69.6965 161.997 68.5663H163.272L189.48 68.1055C190.035 69.1479 190.295 71.1778 190.306 74.1678V110.569V125.157C190.29 131.966 197.154 132.514 199.227 132.514H199.371V131.702Z" fill="white"/>
<path d="M221.246 71.6924H227.766V80.4704H226.413V72.9542H222.604V80.4704H221.246V71.6924Z" fill="white"/>
<path d="M231.228 71.6923H233.19C233.872 71.6565 234.549 71.8207 235.136 72.1641C235.486 72.3963 235.767 72.7163 235.951 73.0913C236.139 73.4666 236.238 73.8795 236.24 74.2983C236.252 74.6622 236.18 75.0241 236.03 75.3567C235.88 75.6893 235.656 75.984 235.375 76.2185C234.76 76.6991 233.99 76.9428 233.207 76.9043H232.591V80.4704H231.233L231.228 71.6923ZM232.586 72.9267V75.6699H233.19C233.651 75.7046 234.108 75.572 234.477 75.2968C234.622 75.1724 234.738 75.017 234.815 74.8422C234.892 74.6674 234.928 74.4778 234.92 74.2873C234.924 73.9814 234.823 73.6832 234.632 73.4424C234.49 73.2645 234.297 73.1341 234.077 73.0694C233.781 72.9727 233.469 72.9263 233.157 72.9322L232.586 72.9267Z" fill="white"/>
<path d="M244.931 80.471V74.5622L238.943 80.866V71.6929H240.302V77.651L246.29 71.3418V80.4929L244.931 80.471Z" fill="white"/>
<path d="M254.259 72.9542H252.224V80.4704H250.866V72.9542H248.831V71.6924H254.259V72.9542Z" fill="white"/>
<path d="M261.354 80.4701V76.8656C260.544 76.9259 259.94 76.9588 259.541 76.9588C258.777 77.017 258.015 76.8241 257.373 76.4102C257.069 76.1469 256.833 75.8163 256.682 75.4455C256.532 75.0747 256.472 74.674 256.508 74.276V71.6865H257.866V74.0785C257.836 74.3263 257.864 74.5775 257.946 74.8132C258.029 75.0489 258.165 75.2629 258.343 75.4391C258.777 75.6649 259.269 75.7603 259.757 75.7134C260.291 75.7109 260.824 75.6797 261.354 75.6202V71.6865H262.712V80.4646L261.354 80.4701Z" fill="white"/>
<path d="M272.314 80.4705L271.383 78.3528H267.59L266.62 80.4705H265.156L269.592 71.1768L273.794 80.4705H272.314ZM268.15 77.1019H270.839L269.52 74.1229L268.15 77.1019Z" fill="white"/>
<path d="M182.502 185.567H184.459C185.139 185.53 185.815 185.694 186.4 186.038C186.75 186.272 187.033 186.591 187.221 186.966C187.407 187.341 187.503 187.754 187.503 188.173C187.517 188.542 187.445 188.91 187.292 189.248C187.14 189.586 186.91 189.884 186.622 190.12C186.007 190.601 185.237 190.845 184.454 190.806H183.85V194.372H182.491L182.502 185.567ZM183.85 186.828V189.572H184.459C184.922 189.606 185.381 189.474 185.751 189.198C185.896 189.074 186.011 188.918 186.087 188.743C186.162 188.568 186.198 188.379 186.189 188.189C186.192 188.048 186.171 187.907 186.128 187.772C186.079 187.618 186.004 187.473 185.907 187.344C185.764 187.168 185.57 187.038 185.352 186.971C185.057 186.874 184.748 186.828 184.437 186.834L183.85 186.828Z" fill="white"/>
<path d="M191.111 186.707C191.875 185.917 192.893 185.415 193.991 185.286C195.088 185.158 196.196 185.412 197.125 186.004C198.054 186.597 198.746 187.491 199.081 188.533C199.417 189.575 199.375 190.7 198.963 191.714C198.552 192.729 197.796 193.571 196.825 194.094C195.855 194.618 194.731 194.79 193.646 194.583C192.561 194.375 191.583 193.801 190.879 192.957C190.176 192.114 189.791 191.054 189.791 189.961C189.776 189.358 189.886 188.759 190.112 188.199C190.339 187.64 190.679 187.132 191.111 186.707ZM192.07 192.353C192.702 192.947 193.541 193.279 194.413 193.279C195.285 193.279 196.123 192.947 196.755 192.353C197.345 191.694 197.67 190.844 197.67 189.963C197.67 189.083 197.345 188.233 196.755 187.574C196.125 186.976 195.286 186.641 194.413 186.641C193.539 186.641 192.7 186.976 192.07 187.574C191.477 188.232 191.149 189.082 191.149 189.963C191.149 190.845 191.477 191.695 192.07 192.353Z" fill="white"/>
<path d="M203.422 185.566V189.067L206.854 185.566H208.639L204.631 189.538L208.661 194.344H206.854L203.688 190.449L203.422 190.713V194.344H202.063V185.566H203.422Z" fill="white"/>
<path d="M210.656 190.635V189.291H213.85V190.635H210.656Z" fill="white"/>
<path d="M217.669 186.707C218.433 185.913 219.453 185.406 220.553 185.275C221.653 185.144 222.765 185.396 223.698 185.988C224.63 186.58 225.326 187.475 225.664 188.52C226.002 189.564 225.962 190.692 225.551 191.71C225.139 192.729 224.383 193.573 223.41 194.099C222.438 194.625 221.311 194.8 220.222 194.593C219.134 194.386 218.153 193.81 217.447 192.964C216.741 192.119 216.355 191.057 216.355 189.96C216.34 189.358 216.448 188.759 216.674 188.2C216.9 187.641 217.239 187.133 217.669 186.707ZM218.628 192.352C219.26 192.947 220.099 193.279 220.971 193.279C221.843 193.279 222.681 192.947 223.313 192.352C223.903 191.693 224.228 190.843 224.228 189.963C224.228 189.083 223.903 188.233 223.313 187.574C222.683 186.975 221.844 186.641 220.971 186.641C220.097 186.641 219.258 186.975 218.628 187.574C218.035 188.231 217.707 189.082 217.707 189.963C217.707 190.844 218.035 191.695 218.628 192.352Z" fill="white"/>
<path d="M228.62 185.566H235.14V194.344H233.787V186.828H229.978V194.344H228.62V185.566Z" fill="white"/>
<path d="M243.503 185.566V186.828H239.96V188.924H243.392V190.186H239.96V193.083H243.503V194.344H238.602V185.566H243.503Z" fill="white"/>
<path d="M246.584 185.566H248.541C249.223 185.531 249.9 185.695 250.487 186.038C250.837 186.27 251.118 186.59 251.302 186.965C251.49 187.341 251.589 187.753 251.591 188.172C251.602 188.536 251.531 188.898 251.381 189.231C251.231 189.563 251.007 189.858 250.726 190.093C250.111 190.573 249.34 190.817 248.558 190.778H247.942V194.344H246.584V185.566ZM247.942 186.828V189.571H248.558C249.018 189.606 249.475 189.473 249.844 189.198C249.99 189.074 250.106 188.918 250.182 188.744C250.259 188.569 250.295 188.379 250.288 188.189C250.292 187.883 250.19 187.585 249.999 187.344C249.858 187.166 249.664 187.036 249.445 186.971C249.148 186.874 248.837 186.828 248.525 186.834L247.942 186.828Z" fill="white"/>
<path d="M260.051 194.345L259.12 192.227H255.328L254.357 194.345H252.894L257.329 185.051L261.532 194.345H260.051ZM255.887 190.965H258.577L257.257 187.986L255.887 190.965Z" fill="white"/>
</svg>
