<svg width="441" height="209" viewBox="0 0 441 209" fill="none" xmlns="http://www.w3.org/2000/svg">
<path d="M24.9992 153.169C24.954 153.04 24.9087 152.911 24.8691 152.777C24.8691 152.895 24.9314 153.006 24.9597 153.124C24.9697 153.141 24.9832 153.156 24.9992 153.169Z" fill="#141515"/>
<path d="M132.294 98.2094C132.302 98.0698 132.302 97.9298 132.294 97.7902C132.294 97.0131 132.305 97.7454 132.294 98.2094Z" fill="#141515"/>
<path d="M210.456 82.6574C210.456 82.6015 210.456 82.54 210.456 82.4785L210.077 82.3611L209.952 82.54L210.456 82.4841V82.6574Z" fill="#141515"/>
<path d="M148.198 7.37764C147.632 7.11489 147.067 6.86332 146.501 6.61176C147.9 7.28048 149.26 8.02706 150.574 8.8479C149.839 8.27385 149.042 7.78085 148.198 7.37764Z" fill="#141515"/>
<path d="M208.751 95.0569C209.006 94.783 209.26 94.4979 209.532 94.2519C209.141 91.0598 208.531 87.918 208.044 87.3925C208.039 89.9634 208.276 92.5292 208.751 95.0569Z" fill="#141515"/>
<path d="M166.148 17.9102C165.843 17.6642 165.543 17.4126 165.254 17.1443L165.187 17.2505L166.148 17.9102Z" fill="#141515"/>
<path d="M166.207 17.3672L168.634 18.8878C167.879 18.3019 167.066 17.7924 166.207 17.3672Z" fill="#141515"/>
<path d="M168.412 19.4583L170.222 20.6993C170.169 20.5089 170.079 20.3304 169.956 20.1738V20.2186C169.427 19.9952 168.911 19.7413 168.412 19.4583Z" fill="#141515"/>
<path d="M54.8363 187.98L54.6553 188.321L56.16 189.271C55.6631 188.9 55.218 188.466 54.8363 187.98Z" fill="#141515"/>
<path d="M56.3809 188.695L58.6437 190.25C57.9341 189.671 57.1772 189.151 56.3809 188.695Z" fill="#141515"/>
<path d="M58.5879 190.792L59.3855 191.295L59.5552 191.027L59.4534 191.184C59.1576 191.069 58.8687 190.939 58.5879 190.792Z" fill="#141515"/>
<path d="M207.84 72.7068H207.767L205.753 72.6509C206.585 75.5076 207.495 78.3419 208.395 81.1762C208.624 81.7611 208.91 82.3227 209.249 82.8534C209.289 82.926 209.419 82.9428 209.6 83.0322L209.871 82.6577C209.871 82.6186 209.871 82.585 209.871 82.5515H209.939L210.064 82.3726L210.443 82.49C210.443 82.5515 210.443 82.613 210.443 82.6689L210.477 85.1622C210.595 87.8176 210.725 90.473 210.844 93.1228C212.256 92.0467 213.816 91.1752 215.477 90.5345C214.516 83.5793 212.848 76.7376 210.499 70.1129V70.3253C210.435 70.9778 210.126 71.583 209.635 72.0233C209.143 72.4635 208.504 72.7072 207.84 72.7068Z" fill="#141515"/>
<path d="M216.418 115.814L216.893 108.273C216.859 107.859 216.82 107.445 216.791 107.026C216.616 104.628 216.492 102.224 216.345 99.8201C214.693 102.448 214.319 105.891 214.319 108.413C214.319 112.471 215.043 115.255 216.107 117.161L216.141 116.91C216.215 116.54 216.307 116.175 216.418 115.814Z" fill="#141515"/>
<path d="M202.638 154.454C205.8 148.506 208.9 142.524 211.264 136.185C212.469 132.961 213.487 129.673 214.314 126.335C212.231 125.407 210.358 124.076 208.804 122.421C208.098 125.906 207.227 129.363 206.19 132.792L204.651 137.56C203.792 140.035 202.819 142.446 201.732 144.794C202.343 145.895 202.655 147.133 202.638 148.389V154.454Z" fill="#141515"/>
<path d="M189.719 163.97V172.221C189.719 172.618 189.719 172.948 189.719 173.233C190.628 172.249 191.516 171.248 192.383 170.231V160.476C191.523 161.655 190.641 162.824 189.719 163.97Z" fill="#141515"/>
<path d="M58.6424 190.249L56.3796 188.695C55.7799 188.293 55.1916 187.885 54.5693 187.46C54.6231 187.649 54.7134 187.825 54.8352 187.98C55.2169 188.466 55.662 188.9 56.159 189.271C56.9157 189.855 57.7286 190.364 58.5858 190.792C58.8614 190.932 59.1447 191.057 59.4344 191.166L59.5362 191.01L59.6041 190.904L58.6424 190.249Z" fill="#141515"/>
<path d="M179.801 174.893C176.16 178.503 172.201 181.787 167.972 184.704C162.031 188.68 155.64 191.958 148.931 194.471C146.521 195.393 144.071 196.209 141.367 197.171C141.616 196.819 141.65 196.724 141.724 196.673C142.029 196.467 142.318 196.249 142.612 196.031C142.384 196.174 142.144 196.298 141.893 196.399C134.618 199.318 126.965 200.369 119.192 200.939C114.547 201.28 109.926 202.415 105.293 203.175C105.53 203.175 105.762 203.231 105.994 203.27C106.039 203.27 106.062 203.376 106.198 203.594L104.11 203.863L102.753 203.997H102.871H102.741L102.775 204.315L103.963 204.243C104.374 204.342 104.807 204.315 105.202 204.165L106.107 204.109C128.786 205.914 105.96 206.507 105.875 207.849C130.557 209.587 152.828 203.074 173.194 189.764L173.075 189.439L169.437 191.357L169.369 191.217C171.174 189.976 172.99 188.752 174.783 187.5C178.145 185.052 181.251 182.278 184.055 179.22C183.059 178.867 182.158 178.294 181.421 177.544C180.683 176.794 180.129 175.887 179.801 174.893Z" fill="#141515"/>
<path d="M96.4329 204.908C93.1518 204.12 89.8707 203.32 86.6349 202.364C81.6398 200.883 76.7578 199.01 71.8249 197.333C71.7909 197.434 71.7627 197.529 71.7344 197.629C72.5546 198.222 73.3919 198.747 74.2348 199.306C74.9667 199.874 75.7575 200.363 76.5937 200.765C77.1594 201.034 77.7251 201.285 78.2908 201.537C80.9213 202.79 83.6683 203.787 86.4935 204.517C88.819 205.181 91.198 205.647 93.6044 205.909L94.0626 205.948C96.5975 206.253 99.1464 206.43 101.7 206.479V206.434L101.733 206.261V206.216L101.767 206.048C100.014 205.713 98.2205 205.327 96.4329 204.908Z" fill="#141515"/>
<path d="M207.405 62.0683C206.16 59.1445 205.272 56.0251 203.699 53.297C198.173 43.6928 191.82 34.7202 182.893 27.8497C181.196 26.5471 179.589 25.1384 177.938 23.7799C180.308 26.5751 182.842 29.1914 185.331 31.8524C189.235 36.0228 193.093 40.2379 196.261 45.0121C196.447 45.2972 196.611 45.6103 196.787 45.9066C192.996 41.8815 189.659 37.521 185.563 33.809C185.888 35.244 186.634 36.5526 187.707 37.5713C191.033 40.8005 193.922 44.4422 196.3 48.4055C196.459 48.6682 196.6 48.9365 196.747 49.2049L196.289 49.5515L192.702 45.1798L192.493 45.3308L199.932 56.4388H199.904L204.084 65.0536H208.072C208.263 65.0552 208.453 65.0777 208.638 65.1206C208.253 64.1088 207.84 63.0858 207.405 62.0683Z" fill="#141515"/>
<path d="M210.5 85.8325C210.5 85.6089 210.5 85.3797 210.5 85.1561L210.466 82.6627V82.4783L209.962 82.5342H209.894C209.894 82.5677 209.894 82.6013 209.894 82.6404C209.725 83.7473 210.194 84.7759 210.5 85.8325Z" fill="#141515"/>
<path d="M168.41 19.4587C168.902 19.7409 169.41 19.9948 169.932 20.219V20.1743L170.113 19.8333L168.608 18.8885L166.181 17.3679L165.384 16.8592L165.214 17.1275C165.502 17.3959 165.78 17.6474 166.108 17.8934C166.828 18.4794 167.599 19.0031 168.41 19.4587Z" fill="#141515"/>
<path d="M8.53799 78.3586C8.31171 78.8393 8.09109 79.3257 7.86481 79.812C7.91678 79.0359 8.06108 78.2684 8.29474 77.5256C9.26774 74.1714 10.3086 70.778 12.3112 67.8151C13.2205 66.6334 14.061 65.4016 14.8286 64.1255C16.4861 60.9054 18.0135 57.6183 19.5522 54.3424C19.7851 53.7496 19.9575 53.1353 20.067 52.5087C20.067 52.4305 20.0047 52.3242 19.9312 52.1342L19.1166 52.3019L18.9129 51.9553C19.4051 51.3962 19.9199 50.9043 20.3894 50.3508L20.5874 50.1161C20.564 49.8246 20.5792 49.5315 20.6327 49.244C21.6509 43.9052 25.2827 39.7068 28.9994 35.9445C32.716 32.1822 36.5232 28.3863 39.8439 24.2383C41.2717 22.3888 42.5539 20.4339 43.6793 18.3907C41.903 19.643 40.1701 20.9586 38.4805 22.3375C38.1723 22.5642 37.8512 22.7732 37.5188 22.9637L31.9467 28.2521L31.166 29.2528C27.851 33.3841 24.3776 37.3812 21.2663 41.6746C15.168 50.172 10.6028 59.4743 7.10677 69.291C6.01497 72.3266 4.52152 75.2671 3.80873 78.3921C1.29702 89.3548 -0.15117 100.429 1.74393 111.688C2.11163 113.824 2.33791 115.982 2.63208 118.134C2.79613 114.411 2.71128 110.721 2.6943 107.026C2.6943 101.229 2.6943 95.4315 3.63337 89.6958C3.68994 89.3492 3.7861 89.0082 3.85965 88.6616C3.9049 94.252 3.37314 99.8423 3.85965 105.433C4.61212 104.122 4.95464 102.62 4.84397 101.117C4.5996 96.4321 4.96079 91.7356 5.9188 87.141C5.98103 86.8391 6.06588 86.5373 6.13942 86.2354L6.70512 86.2969L6.3657 92.027L6.62027 92.0549C7.34436 87.5193 8.06469 82.9818 8.78124 78.4424L8.53799 78.3586Z" fill="#141515"/>
<path d="M16.7241 120.762C16.8259 116.015 15.5927 111.498 14.993 106.903C14.399 108.86 15.7963 119.75 16.7241 120.762Z" fill="#141515"/>
<path d="M150.557 8.84242C149.244 8.02159 147.884 7.27501 146.484 6.60628C143.853 5.35427 141.106 4.35461 138.282 3.62103C135.956 2.95758 133.577 2.49372 131.171 2.23461L130.713 2.18989C128.207 1.88801 125.655 1.7203 123.076 1.6644V1.70912L123.042 1.87683V1.92715L123.008 2.09485C124.705 2.4191 126.402 2.78247 128.099 3.15702C130.781 3.8111 133.462 4.46517 136.115 5.19751H136.341C137.473 5.51057 138.604 5.82922 139.696 6.16464L139.815 6.25409C144.25 7.63491 148.623 9.25611 153.024 10.7599C153.058 10.6649 153.086 10.5643 153.114 10.4692C152.238 9.91018 151.4 9.36792 150.557 8.84242Z" fill="#141515"/>
<path d="M122.019 3.81107L120.831 3.88375C120.42 3.78436 119.987 3.81167 119.592 3.96202L118.687 4.01792C96.0081 2.20664 118.834 1.61406 118.919 0.277966C94.2374 -1.46623 71.9658 5.05214 51.6006 18.3572L51.7194 18.6814L55.3568 16.7695L55.4247 16.9093C53.6201 18.1448 51.8042 19.3691 50.0109 20.6213C44.7895 24.2606 40.6486 29.0516 36.2927 33.5909C31.6709 38.3987 27.5187 43.6145 24.379 49.5235C20.4757 56.8636 16.4592 64.1479 13.5233 71.9744C11.1945 78.2056 9.55942 84.6689 8.64691 91.2499C8.57388 91.6179 8.48135 91.9817 8.36972 92.3401L7.89453 99.8871C7.92847 100.301 7.96807 100.714 7.99636 101.128C8.36972 106.322 8.5168 111.537 9.1617 116.697C10.4289 126.883 13.3592 136.644 17.3813 146.086C18.6259 149.01 19.514 152.129 21.0867 154.863C26.6136 164.461 32.9664 173.439 41.8931 180.31C43.5902 181.613 45.1968 183.021 46.8487 184.38C44.4784 181.585 41.9441 178.963 39.455 176.307C35.5516 172.137 31.6936 167.922 28.5256 163.148C28.339 162.857 28.1749 162.549 27.9995 162.248C31.7897 166.278 35.1274 170.633 39.223 174.351C38.8998 172.916 38.1584 171.606 37.0903 170.583C33.7636 167.355 30.8734 163.715 28.4917 159.754C28.3333 159.492 28.1919 159.195 28.0448 158.955L28.503 158.608L32.0896 162.98L32.2989 162.835C29.8362 159.13 27.3565 155.425 24.8599 151.721H24.8882L20.5097 142.687C21.262 146.466 23.0044 149.82 24.9447 153.102C24.4886 152.525 24.0978 151.901 23.7794 151.24C22.2181 148.143 20.719 145.018 20.1816 141.546C20.0561 140.086 19.8465 138.634 19.5536 137.197C18.5976 133.77 17.5001 130.377 16.4196 126.978C16.1892 126.393 15.9032 125.832 15.5654 125.301C15.5258 125.228 15.3957 125.206 15.2147 125.116L14.9432 125.496C15.0902 124.378 14.5981 123.372 14.3152 122.321C14.3152 122.545 14.3152 122.768 14.3152 122.992C14.1568 119.464 13.9758 115.943 13.8287 112.415C13.2853 98.406 15.3602 84.418 19.9496 71.1526C24.0792 58.9991 30.9242 48.4725 39.4889 38.9968C44.7216 33.2164 50.3504 27.8496 56.822 23.45C62.7636 19.4744 69.1538 16.1968 75.8635 13.6837C78.2733 12.7612 80.7228 11.9506 83.4269 10.9891C83.3232 11.165 83.204 11.3315 83.0705 11.4866L82.8272 11.6599C89.3271 8.78091 96.8736 8.36163 103.758 6.99199C108.821 5.98573 113.731 4.86206 118.868 4.45956L119.66 4.38129L120.226 4.34216L120.718 4.28067L122.076 4.1465H121.957H122.087L122.019 3.81107ZM24.8712 152.777C24.9108 152.912 24.9561 153.04 25.0013 153.169C24.9852 153.157 24.9718 153.141 24.9617 153.124C24.9334 153.007 24.8995 152.917 24.8712 152.777Z" fill="#141515"/>
<path d="M281.889 177.258V175.995H281.42C280.9 175.995 280.396 174.351 280.028 173.149L270.411 143.777H266.559L255.624 177.258H258.481L262.492 164.4H272.307L275.327 173.697C276.459 177.152 279.231 177.275 280.984 177.275H281.867L281.889 177.258ZM263.08 162.516L267.294 149.004L271.679 162.516H263.08Z" fill="#141515"/>
<path d="M154.88 148.49L154.473 148.06C152.912 146.382 150.004 143.313 143.402 143.313C133.582 143.313 126.997 150.022 126.997 160.051C126.997 170.673 133.22 177.258 143.278 177.258C148.154 177.258 153.053 174.334 155.723 171.438L155.989 171.148L155.118 170.03L154.739 170.36C152.25 172.534 148.024 174.055 144.466 174.055C137.423 174.055 132.111 168.039 132.111 160.079C132.111 150.62 136.637 144.985 144.279 144.985C146.036 144.984 147.773 145.356 149.372 146.077C150.971 146.797 152.394 147.849 153.545 149.161L153.874 149.513L154.88 148.49Z" fill="#141515"/>
<path d="M356.144 174.188V158.194H366.078V156.332H356.144V146.829C356.149 146.406 356.039 145.989 355.827 145.621H368.839V143.754H350.074V145.018H350.544C350.544 145.018 351.24 145.062 351.24 148.685V172.304C351.24 175.932 350.572 175.971 350.544 175.971H350.074V177.235H371.113V175.39H355.839C356.046 175.023 356.151 174.608 356.144 174.188Z" fill="#141515"/>
<path d="M310.111 172.282V148.383C310.111 144.951 307.221 143.732 304.511 143.732H304.041V144.996H304.511C304.511 144.996 305.207 145.035 305.207 148.708V160.28H291.834V148.383C291.834 144.951 288.937 143.732 286.233 143.732H285.764V144.996H286.233C286.233 144.996 286.929 145.035 286.929 148.708V172.607C286.929 176.039 289.82 177.258 292.529 177.258H292.999V175.994H292.529C292.529 175.994 291.834 175.955 291.834 172.282V162.147H305.235V172.607C305.235 176.039 308.131 177.258 310.836 177.258H311.305V175.994H310.836C310.836 175.994 310.111 175.955 310.111 172.282Z" fill="#141515"/>
<path d="M85.0324 121.131H81.5194L82.17 184.889C81.4911 186.124 80.8462 187.287 79.8223 187.371H79.7148V188.405H82.0512C83.8954 188.405 88.3701 188.17 90.9157 183.374L119.201 129.812L118.154 188.276V188.416H121.673L121.011 126.363C121.22 125.966 121.418 125.558 121.611 125.161C122.391 123.551 123.064 122.159 124.173 122.159H124.292V121.114H121.905C120.038 121.114 115.614 121.393 113.086 126.145L83.9746 181.238L85.0324 121.242V121.131Z" fill="#141515"/>
<path d="M336.95 145.985L320.929 171.874L321.495 143.312H318.666L319.045 175.004C318.683 175.563 318.406 175.915 318.066 175.943L317.631 175.977V177.257H319.373C320.505 177.257 323.243 177.134 324.827 174.585L340.378 149.428L339.812 177.235H342.64L342.256 146.387C342.358 146.219 342.454 146.046 342.544 145.878C342.918 145.224 343.268 144.604 343.676 144.604H344.145V143.29H342.567C341.605 143.312 338.607 143.284 336.95 145.985Z" fill="#141515"/>
<path d="M219.76 148.708V172.607C219.76 176.039 222.656 177.258 225.361 177.258H225.83V175.994H225.361C225.361 175.994 224.665 175.955 224.665 172.282V148.383C224.665 144.951 221.774 143.732 219.07 143.732H218.595V144.996H219.07C219.098 144.996 219.76 145.035 219.76 148.708Z" fill="#141515"/>
<path d="M215.987 167.452C215.987 161.918 211.173 158.614 203.112 158.614C202.41 158.614 201.041 158.67 199.972 158.737V148.383C199.972 144.951 197.082 143.732 194.378 143.732H193.902V144.996H194.355C194.355 144.996 195.045 145.035 195.045 148.708V172.607C195.045 175.843 197.619 177.112 200.182 177.247H203.038C210.67 177.258 215.987 173.221 215.987 167.452ZM203.406 175.625C202.347 175.592 201.292 175.467 200.255 175.251C200.044 174.276 199.954 173.279 199.989 172.282V160.576C201.16 160.341 202.353 160.229 203.548 160.241C208.265 160.241 210.862 162.767 210.862 167.352C210.845 172.299 207.847 175.625 203.406 175.625Z" fill="#141515"/>
<path d="M245.907 175.995H245.437C245.409 175.995 244.741 175.956 244.741 172.283V148.384C244.776 147.401 244.473 146.435 243.881 145.645H254.952V143.777H229.62V145.65H239.548C239.776 146.655 239.871 147.685 239.831 148.714V172.613C239.831 176.045 242.727 177.264 245.437 177.264H245.907V175.995Z" fill="#141515"/>
<path d="M187.773 177.258H188.248V175.994H187.773C187.745 175.994 187.066 175.949 187.066 172.221V148.02C187.066 144.621 184.237 143.369 181.573 143.319H158.984L159.199 145.476L162.299 145.393C162.523 146.349 162.618 147.33 162.582 148.311V172.551C162.582 176.028 165.513 177.263 168.239 177.263H168.709V176H168.239C168.211 176 167.526 175.955 167.526 172.221V147.975C167.582 147.041 167.325 146.114 166.797 145.337L181.754 145.074C182.037 146.142 182.151 147.247 182.093 148.35V172.551C182.11 176.022 185.035 177.258 187.773 177.258Z" fill="#141515"/>
<path d="M277.394 125.614L286.202 97.3601L294.23 122.042C295.361 125.491 298.138 125.614 299.915 125.614H300.792V124.35H300.322C299.807 124.35 299.298 122.707 298.93 121.505L289.314 92.1331H285.461L274.521 125.614H277.394Z" fill="#141515"/>
<path d="M260.543 125.613C265.425 125.613 270.324 122.69 272.989 119.794L273.26 119.503L272.389 118.385L272.01 118.715C269.521 120.89 265.295 122.41 261.731 122.41C254.694 122.41 249.382 116.395 249.382 108.434C249.382 98.9753 253.908 93.3402 261.55 93.3402C263.307 93.3398 265.042 93.7125 266.64 94.433C268.238 95.1535 269.66 96.205 270.811 97.5162L271.145 97.8684L272.14 96.8845L271.733 96.4485C270.166 94.7714 267.258 91.7079 260.662 91.7079C250.842 91.7079 244.257 98.4163 244.257 108.451C244.234 119.022 250.474 125.613 260.543 125.613Z" fill="#141515"/>
<path d="M326.098 123.747H310.824C311.037 123.381 311.149 122.966 311.147 122.545V106.556H321.069V104.689H311.13V95.1854C311.131 94.762 311.02 94.3456 310.807 93.9779H323.818V92.1107H305.06V93.3741H305.529C305.557 93.3741 306.225 93.4189 306.225 97.047V120.661C306.225 124.289 305.557 124.328 305.529 124.328H305.06V125.591H326.098V123.747Z" fill="#141515"/>
<path d="M400.773 122.545V106.556H410.707V104.689H400.773V95.1854C400.776 94.7624 400.667 94.346 400.456 93.9779H413.467V92.1107H394.703V93.3741H395.178C395.178 93.3741 395.874 93.4189 395.874 97.047V120.661C395.874 124.289 395.207 124.328 395.178 124.328H394.709V125.591H415.753V123.724H400.479C400.679 123.363 400.78 122.956 400.773 122.545Z" fill="#141515"/>
<path d="M425.686 123.747C425.899 123.381 426.011 122.966 426.008 122.545V106.556H435.936V104.689H426.008V95.1854C426.01 94.762 425.898 94.3456 425.686 93.9779H438.697V92.1107H419.938V93.3741H420.408C420.408 93.3741 421.104 93.4189 421.104 97.047V120.661C421.104 124.289 420.436 124.328 420.408 124.328H419.938V125.591H440.999V123.724L425.686 123.747Z" fill="#141515"/>
<path d="M388.57 120.639V96.7401C388.57 93.3133 385.679 92.089 382.97 92.089H382.5V93.3524H382.97C382.998 93.3524 383.666 93.3915 383.666 97.07V108.642H370.287V96.7401C370.287 93.3133 367.396 92.089 364.686 92.089H364.217V93.3524H364.686C364.686 93.3524 365.382 93.3915 365.382 97.07V120.963C365.382 124.396 368.273 125.614 370.983 125.614H371.452V124.351H370.983C370.983 124.351 370.287 124.312 370.287 120.639V110.509H383.66V120.963C383.66 124.396 386.556 125.614 389.26 125.614H389.73V124.351H389.26C389.26 124.351 388.57 124.312 388.57 120.639Z" fill="#141515"/>
<path d="M206.523 108.412C206.523 119.185 213.063 125.614 224.015 125.614C235.097 125.614 241.455 119.347 241.455 108.412C241.455 100.295 235.323 91.6689 223.964 91.6689C213.368 91.6689 206.523 98.2376 206.523 108.412ZM223.823 93.3181C232.025 93.3181 236.319 100.921 236.319 108.412C236.319 118.743 232.178 123.981 224.015 123.981C213.804 123.981 211.66 115.512 211.66 108.412C211.66 98.9532 216.208 93.3013 223.823 93.3013V93.3181Z" fill="#141515"/>
<path d="M329.031 130.797C329.031 134.229 331.922 135.448 334.632 135.448H335.101V134.184H334.649C334.621 134.184 333.953 134.145 333.953 130.472V125.614H356.213V130.797C356.213 134.229 359.11 135.448 361.819 135.448H362.289V134.184H361.802C361.802 134.184 361.107 134.145 361.107 130.472V125.614V124.351H360.637C360.513 124.351 360.405 124.178 360.337 124.027L360.213 123.747H358.584C358.255 123.023 357.983 122.276 357.769 121.511L348.152 92.1393H344.3L333.97 123.753H329.903L329.778 124.032C329.71 124.183 329.603 124.357 329.484 124.357H329.009V125.62L329.031 130.797ZM345.041 97.3607L353.068 122.042C353.263 122.655 353.559 123.231 353.945 123.747H336.815L345.041 97.3607Z" fill="#141515"/>
<path d="M203.972 134.201H203.853C202.574 134.201 201.924 131.769 201.924 126.973V97.9028V75.6811C201.924 72.9586 202.15 71.125 202.625 69.9119L207.858 70.0516L208.09 67.7148H154.699L154.931 70.0516L160.17 69.9119C160.645 71.125 160.865 72.9586 160.865 75.6811V127.532C160.865 127.688 160.865 127.822 160.894 127.968C160.893 128.928 161.107 129.877 161.519 130.747C161.932 131.616 162.533 132.385 163.281 132.999C163.401 133.095 163.525 133.184 163.654 133.267C165.855 134.799 168.746 134.995 170.001 134.995H170.12V134.19H170.03C169.011 134.19 168.395 132.641 168.186 129.595C168.129 128.812 168.101 127.917 168.101 126.95V75.1053C168.101 72.6064 167.422 71.0188 165.838 69.8671H167.139L193.88 69.3975C194.445 70.4597 194.711 72.5281 194.723 75.5749V112.667V127.532C194.706 134.469 201.709 135.028 203.825 135.028H203.972V134.201Z" fill="#141515"/>
<path d="M226.291 73.0527H232.944V81.9973H231.563V74.3385H227.677V81.9973H226.291V73.0527Z" fill="#141515"/>
<path d="M236.476 73.0529H238.478C239.174 73.0165 239.864 73.1837 240.464 73.5337C240.821 73.7703 241.108 74.0963 241.295 74.4785C241.487 74.8609 241.588 75.2816 241.59 75.7084C241.602 76.0792 241.529 76.448 241.376 76.7869C241.223 77.1258 240.994 77.426 240.707 77.665C240.08 78.1548 239.294 78.403 238.495 78.3638H237.867V81.9975H236.481L236.476 73.0529ZM237.862 74.3108V77.106H238.478C238.948 77.1414 239.415 77.0062 239.791 76.7258C239.939 76.599 240.057 76.4407 240.136 76.2626C240.214 76.0845 240.251 75.8912 240.243 75.6972C240.248 75.3854 240.144 75.0816 239.949 74.8363C239.805 74.6549 239.607 74.5221 239.383 74.4561C239.08 74.3576 238.763 74.3103 238.444 74.3164L237.862 74.3108Z" fill="#141515"/>
<path d="M250.457 81.9979V75.9771L244.348 82.4004V73.0533H245.734V79.1244L251.843 72.6955V82.0202L250.457 81.9979Z" fill="#141515"/>
<path d="M259.975 74.3385H257.899V81.9973H256.513V74.3385H254.437V73.0527H259.975V74.3385Z" fill="#141515"/>
<path d="M267.213 81.9972V78.3243C266.387 78.3858 265.771 78.4194 265.363 78.4194C264.584 78.4786 263.806 78.2821 263.151 77.8603C262.842 77.592 262.6 77.2552 262.447 76.8773C262.294 76.4995 262.233 76.0912 262.269 75.6857V73.047H263.655V75.4844C263.624 75.7368 263.652 75.9928 263.737 76.233C263.821 76.4732 263.959 76.6913 264.141 76.8708C264.584 77.1009 265.086 77.1981 265.584 77.1504C266.128 77.1477 266.672 77.116 267.213 77.0553V73.047H268.599V81.9916L267.213 81.9972Z" fill="#141515"/>
<path d="M278.397 81.9976L277.447 79.8398H273.577L272.587 81.9976H271.094L275.619 72.5276L279.907 81.9976H278.397ZM274.149 78.5651H276.892L275.546 75.5296L274.149 78.5651Z" fill="#141515"/>
<path d="M186.761 189.087H188.758C189.452 189.049 190.141 189.217 190.738 189.567C191.095 189.805 191.384 190.131 191.575 190.512C191.765 190.895 191.864 191.316 191.864 191.742C191.878 192.119 191.805 192.494 191.649 192.838C191.493 193.182 191.259 193.486 190.964 193.727C190.337 194.217 189.551 194.465 188.753 194.425H188.136V198.059H186.75L186.761 189.087ZM188.136 190.372V193.168H188.758C189.23 193.203 189.698 193.068 190.076 192.787C190.224 192.66 190.341 192.501 190.418 192.323C190.496 192.145 190.532 191.952 190.523 191.759C190.526 191.615 190.505 191.471 190.461 191.334C190.411 191.177 190.334 191.03 190.235 190.898C190.089 190.718 189.892 190.586 189.669 190.518C189.368 190.419 189.053 190.371 188.736 190.378L188.136 190.372Z" fill="#141515"/>
<path d="M195.545 190.249C196.324 189.444 197.363 188.932 198.483 188.801C199.603 188.671 200.734 188.929 201.682 189.533C202.629 190.137 203.335 191.047 203.677 192.109C204.019 193.171 203.977 194.317 203.557 195.351C203.137 196.386 202.366 197.243 201.376 197.776C200.386 198.31 199.239 198.486 198.131 198.274C197.024 198.063 196.026 197.477 195.309 196.618C194.591 195.758 194.199 194.679 194.199 193.564C194.183 192.95 194.295 192.34 194.526 191.77C194.758 191.2 195.104 190.682 195.545 190.249ZM196.524 196.002C197.168 196.608 198.024 196.946 198.914 196.946C199.804 196.946 200.659 196.608 201.304 196.002C201.906 195.33 202.238 194.464 202.238 193.567C202.238 192.67 201.906 191.804 201.304 191.132C200.661 190.523 199.805 190.182 198.914 190.182C198.023 190.182 197.166 190.523 196.524 191.132C195.919 191.802 195.584 192.669 195.584 193.567C195.584 194.465 195.919 195.332 196.524 196.002Z" fill="#141515"/>
<path d="M208.105 189.087V192.653L211.606 189.087H213.428L209.338 193.134L213.451 198.031H211.606L208.376 194.062L208.105 194.33V198.031H206.719V189.087H208.105Z" fill="#141515"/>
<path d="M215.487 194.252V192.882H218.746V194.252H215.487Z" fill="#141515"/>
<path d="M222.643 190.249C223.422 189.44 224.463 188.924 225.585 188.79C226.708 188.657 227.843 188.914 228.794 189.517C229.746 190.12 230.455 191.032 230.8 192.097C231.145 193.161 231.104 194.31 230.685 195.348C230.265 196.385 229.493 197.246 228.501 197.782C227.509 198.318 226.359 198.496 225.248 198.285C224.138 198.074 223.137 197.487 222.417 196.626C221.696 195.764 221.302 194.682 221.302 193.564C221.287 192.951 221.398 192.341 221.628 191.771C221.858 191.201 222.204 190.683 222.643 190.249ZM223.622 196.002C224.266 196.608 225.122 196.946 226.012 196.946C226.901 196.946 227.757 196.608 228.402 196.002C229.003 195.33 229.336 194.464 229.336 193.567C229.336 192.67 229.003 191.804 228.402 191.133C227.759 190.523 226.903 190.182 226.012 190.182C225.121 190.182 224.264 190.523 223.622 191.133C223.016 191.803 222.682 192.669 222.682 193.567C222.682 194.465 223.016 195.332 223.622 196.002Z" fill="#141515"/>
<path d="M233.816 189.087H240.469V198.031H239.089V190.372H235.202V198.031H233.816V189.087Z" fill="#141515"/>
<path d="M249.002 189.087V190.372H245.387V192.508H248.889V193.794H245.387V196.745H249.002V198.031H244.001V189.087H249.002Z" fill="#141515"/>
<path d="M252.146 189.086H254.142C254.838 189.05 255.529 189.217 256.128 189.567C256.485 189.804 256.772 190.13 256.96 190.512C257.151 190.894 257.252 191.315 257.254 191.742C257.266 192.113 257.193 192.481 257.04 192.82C256.887 193.159 256.658 193.459 256.371 193.698C255.744 194.188 254.958 194.436 254.159 194.397H253.531V198.031H252.146V189.086ZM253.531 190.372V193.167H254.159C254.629 193.203 255.096 193.068 255.472 192.787C255.621 192.66 255.739 192.502 255.817 192.324C255.895 192.146 255.932 191.953 255.924 191.759C255.929 191.447 255.825 191.143 255.63 190.898C255.486 190.716 255.288 190.583 255.065 190.517C254.762 190.419 254.444 190.372 254.125 190.378L253.531 190.372Z" fill="#141515"/>
<path d="M265.886 198.031L264.936 195.874H261.066L260.076 198.031H258.583L263.109 188.561L267.397 198.031H265.886ZM261.638 194.588H264.381L263.035 191.552L261.638 194.588Z" fill="#141515"/>
</svg>
